<svg width="133" height="146" viewBox="0 0 133 146" fill="none" xmlns="http://www.w3.org/2000/svg">
<path fill-rule="evenodd" clip-rule="evenodd" d="M122.471 17.0684C123.069 15.6237 123.4 14.0345 123.4 12.3834C123.4 5.55188 117.846 0 111.012 0C104.178 0 98.6454 5.55188 98.6454 12.3834C98.6454 12.6104 98.666 12.8374 98.6867 13.0438H23.7013C10.6739 13.0438 0 23.7142 0 36.7373V122.306C0 135.35 10.6739 146 23.7013 146H109.299C122.326 146 133 135.33 133 122.306V36.7373C133.021 28.585 128.829 21.3407 122.471 17.0684ZM118.259 132.523H103.786V118.303L102.898 120.944L101.784 123.524L100.565 125.918L99.0996 128.085L98.3357 129.014L97.5305 129.902L95.7137 131.305L94.764 131.842L93.773 132.254L92.782 132.481L91.7291 132.543H76.9674L73.7053 108.953L81.0759 109.118L83.3056 109.056L85.5973 108.932L87.889 108.458L88.9419 108.107L89.9329 107.632L90.3458 107.116L90.6968 106.476L90.9858 105.837L91.2129 105.135L91.3368 104.371L91.3987 103.546L91.3368 101.791L91.0478 99.9751L90.5316 98.097L89.9329 96.1776L89.169 94.3613L80.6836 77.458L87.3522 64.5793L88.2399 62.5154L89.0038 60.6373L89.4787 58.9861L89.8297 57.5208L89.9329 56.1792L89.8709 55.0028L89.6851 54.0122L89.3342 53.1247L88.88 52.423L88.2399 51.7831L87.538 51.3085L86.6709 50.8957L85.7212 50.6067L84.7302 50.4416L83.6153 50.3178H82.4385H76.5338L76.7609 54.1773L76.8228 58.0987L76.699 62.0201L76.348 65.9415L75.8731 69.801L75.2951 73.5366L74.5312 77.0452L74.1182 78.6757L73.7053 80.3062L73.1892 81.9986L72.5492 83.691L71.0833 87.2615L70.1955 89.2222L69.2665 91.1004L67.0987 94.8979L65.9838 96.838L64.7451 98.7574L62.1024 102.617L59.2946 106.414L57.8287 108.293L56.3629 110.171V132.523H44.5948V119.892L42.0141 132.523H14.7411V106.022V79.5013V53.0008V26.5417H29.1931L29.1312 67.799L29.0692 109.118H44.5948V81.8541V54.6313H56.3629V82.3701L57.5397 80.3681L58.9436 77.9121L60.3475 75.229L61.6895 72.2983L62.9282 69.2437L63.9192 66.1479L64.3322 64.5793L64.6212 63.1139L64.7864 61.5867L64.8483 60.1832L64.7244 56.9635L64.3115 54.6726L63.9605 53.8677L63.6096 53.2279L63.1966 52.7119L62.7218 52.361L61.545 52.0102L60.1411 51.9483L56.6932 52.0515H41.2296L44.5742 26.6449H60.0172L61.483 26.7068L62.9489 26.9545L64.2289 27.3053L65.509 27.842L66.6858 28.4818L67.8006 29.2454L68.8536 30.1329L69.7826 31.1236L70.7117 32.1761L71.5375 33.3938L72.9414 36.0356L73.5815 37.501L74.1595 39.0283L74.6757 40.6175L75.0886 42.3099L77.2564 26.5623H89.3135L90.7174 26.6243L92.0594 26.9751L93.2981 27.4498L94.5162 28.0896L95.6931 28.9771L96.746 29.9678L97.7576 31.1442L98.6454 32.4238L99.5125 33.8273L100.214 35.3545L100.854 37.0469L101.391 38.8012L101.804 40.6175L102.093 42.5575L102.32 44.5595L102.382 46.6028L102.258 51.2878L101.969 55.3743L101.433 59.1306L101.144 60.9468L100.793 62.6392L99.9254 66.0447L98.9344 69.4501L96.4776 76.7563L98.0673 80.43L99.9874 85.177L101.99 90.7908L102.919 93.8454L103.724 97.0031V61.7105V26.5417H118.197V53.0008V79.5013V106.002V132.523H118.259ZM111.033 22.9092C105.231 22.9092 100.504 18.1623 100.504 12.3834C100.504 6.58383 105.252 1.85751 111.033 1.85751C116.834 1.85751 121.583 6.60447 121.583 12.3834C121.562 18.1829 116.814 22.9092 111.033 22.9092Z" fill="white"/>
</svg>
